<?xml version="1.0" encoding="utf-8"?>
<!-- Generated by IcoMoon.io -->
<!DOCTYPE svg PUBLIC "-//W3C//DTD SVG 1.1//EN" "http://www.w3.org/Graphics/SVG/1.1/DTD/svg11.dtd">
<svg version="1.1" xmlns="http://www.w3.org/2000/svg" xmlns:xlink="http://www.w3.org/1999/xlink" width="60" height="60" viewBox="0 0 60 60">
<g id="icomoon-ignore">
	<line stroke-width="1" x1="" y1="" x2="" y2="" stroke="#449FDB" opacity=""></line>
</g>
	<path d="M30 59.75c-16.404 0-29.75-13.346-29.75-29.75s13.346-29.75 29.75-29.75c16.402 0 29.75 13.346 29.75 29.75s-13.348 29.75-29.75 29.75zM30 2.25c-15.302 0-27.75 12.448-27.75 27.75 0 15.3 12.448 27.75 27.75 27.75 15.3 0 27.75-12.45 27.75-27.75 0-15.302-12.45-27.75-27.75-27.75z" fill="#000000"></path>
	<path d="M49.242 50.71c-0.254 0-0.512-0.098-0.708-0.294l-39.43-39.434c-0.39-0.39-0.39-1.024 0-1.414s1.024-0.39 1.414 0l39.432 39.434c0.39 0.388 0.39 1.026 0 1.414-0.194 0.198-0.45 0.294-0.708 0.294z" fill="#000000"></path>
	<path d="M50.522 34.25h-42c-0.552 0-1-0.45-1-1v-6c0-0.552 0.448-1 1-1h42c0.552 0 1 0.448 1 1v6c0 0.55-0.448 1-1 1zM9.522 32.25h40v-4h-40v4z" fill="#000000"></path>
	<path d="M40.522 33.25c-0.552 0-1-0.45-1-1v-4c0-0.552 0.448-1 1-1s1 0.448 1 1v4c0 0.55-0.448 1-1 1z" fill="#000000"></path>
	<path d="M16.264 23.56c-0.262 0-0.524-0.102-0.722-0.3-0.966-0.968-0.6-2.61-0.214-4.35 0.248-1.114 0.622-2.798 0.214-3.206-0.39-0.39-0.39-1.022 0-1.414 0.39-0.39 1.024-0.39 1.414 0 1.184 1.184 0.746 3.152 0.324 5.054-0.184 0.822-0.49 2.198-0.306 2.524 0.39 0.39 0.38 1.014-0.010 1.404-0.192 0.192-0.446 0.288-0.7 0.288z" fill="#000000"></path>
	<path d="M11.264 23.56c-0.262 0-0.524-0.102-0.722-0.3-0.966-0.968-0.6-2.61-0.214-4.35 0.248-1.114 0.622-2.798 0.214-3.206-0.39-0.39-0.39-1.022 0-1.414 0.39-0.39 1.024-0.39 1.414 0 1.184 1.184 0.746 3.152 0.324 5.054-0.184 0.822-0.49 2.198-0.306 2.524 0.39 0.39 0.38 1.014-0.010 1.404-0.192 0.192-0.446 0.288-0.7 0.288z" fill="#000000"></path>
</svg>
