<?xml version="1.0" encoding="utf-8"?>
<!-- Generated by IcoMoon.io -->
<!DOCTYPE svg PUBLIC "-//W3C//DTD SVG 1.1//EN" "http://www.w3.org/Graphics/SVG/1.1/DTD/svg11.dtd">
<svg version="1.1" xmlns="http://www.w3.org/2000/svg" xmlns:xlink="http://www.w3.org/1999/xlink" width="60" height="60" viewBox="0 0 60 60">
<g id="icomoon-ignore">
	<line stroke-width="1" x1="" y1="" x2="" y2="" stroke="#449FDB" opacity=""></line>
</g>
	<path d="M50.004 46c-1.93 0-3.5-1.57-3.5-3.5 0-0.828-0.672-1.5-1.5-1.5s-1.5 0.672-1.5 1.5c0 1.93-1.57 3.5-3.5 3.5s-3.5-1.57-3.5-3.5c0-0.828-0.672-1.5-1.5-1.5s-1.5 0.672-1.5 1.5c0 1.93-1.57 3.5-3.5 3.5s-3.5-1.57-3.5-3.5c0-0.828-0.672-1.5-1.5-1.5s-1.5 0.672-1.5 1.5c0 1.93-1.57 3.5-3.5 3.5s-3.5-1.57-3.5-3.5c0-0.828-0.672-1.5-1.5-1.5s-1.5 0.672-1.5 1.5c0 1.93-1.57 3.5-3.5 3.5s-3.5-1.57-3.5-3.5c0-0.828-0.672-1.5-1.5-1.5s-1.5 0.672-1.5 1.5c0 0.55-0.448 1-1 1s-1-0.45-1-1c0-1.93 1.57-3.5 3.5-3.5s3.5 1.57 3.5 3.5c0 0.828 0.672 1.5 1.5 1.5s1.5-0.672 1.5-1.5c0-1.93 1.57-3.5 3.5-3.5s3.5 1.57 3.5 3.5c0 0.828 0.672 1.5 1.5 1.5s1.5-0.672 1.5-1.5c0-1.93 1.57-3.5 3.5-3.5s3.5 1.57 3.5 3.5c0 0.828 0.672 1.5 1.5 1.5s1.5-0.672 1.5-1.5c0-1.93 1.57-3.5 3.5-3.5s3.5 1.57 3.5 3.5c0 0.828 0.672 1.5 1.5 1.5s1.5-0.672 1.5-1.5c0-1.93 1.57-3.5 3.5-3.5s3.5 1.57 3.5 3.5c0 0.828 0.672 1.5 1.5 1.5s1.5-0.672 1.5-1.5c0-0.55 0.45-1 1-1s1 0.45 1 1c0 1.928-1.57 3.5-3.5 3.5z" fill="#000000"></path>
	<path d="M2.5 41c-0.49 0-0.918-0.36-0.99-0.86l-1.25-8.75c-0.038-0.262 0.032-0.536 0.194-0.75 0.162-0.212 0.402-0.352 0.666-0.386l57.5-7.5c0.398-0.052 0.806 0.15 1.004 0.514 0.2 0.362 0.152 0.81-0.114 1.126l-13.75 16.248c-0.358 0.422-0.988 0.472-1.41 0.12-0.422-0.358-0.472-0.986-0.12-1.41l12.082-14.278-53.932 7.036 1.108 7.75c0.078 0.542-0.302 1.050-0.848 1.128-0.042 0.008-0.090 0.012-0.14 0.012z" fill="#000000"></path>
	<path d="M10.708 30.706l-1.414-1.414 7.5-7.5c0.118-0.116 0.26-0.202 0.42-0.25l25-7.5c0.402-0.12 0.836 0.022 1.086 0.358l7.5 10-1.6 1.202-7.078-9.442-24.092 7.228-7.322 7.318z" fill="#000000"></path>
	<path d="M35.752 27.422l-2.22-9.18 1.94-0.486 2.222 9.182z" fill="#000000"></path>
	<path d="M2.5 36c-0.508 0-0.942-0.382-0.994-0.9-0.054-0.548 0.346-1.042 0.896-1.094l50-5c0.554-0.056 1.042 0.346 1.094 0.896 0.054 0.55-0.344 1.040-0.894 1.094l-50 5c-0.034 0.002-0.066 0.004-0.102 0.004z" fill="#000000"></path>
</svg>
