<?xml version="1.0" encoding="utf-8"?>
<!-- Generated by IcoMoon.io -->
<!DOCTYPE svg PUBLIC "-//W3C//DTD SVG 1.1//EN" "http://www.w3.org/Graphics/SVG/1.1/DTD/svg11.dtd">
<svg version="1.1" xmlns="http://www.w3.org/2000/svg" xmlns:xlink="http://www.w3.org/1999/xlink" width="60" height="60" viewBox="0 0 60 60">
<g id="icomoon-ignore">
	<line stroke-width="1" x1="" y1="" x2="" y2="" stroke="#449FDB" opacity=""></line>
</g>
	<path d="M45.774 59.374h-26c-0.552 0-1-0.448-1-1v-46c0-0.552 0.448-1 1-1h26c0.55 0 1 0.448 1 1v46c0 0.552-0.45 1-1 1zM20.772 57.374h24v-44h-24v44z" fill="#000000"></path>
	<path d="M37.75 30.84c-2.942 0-5.598-0.446-7.916-0.836-3.39-0.57-6.070-1.022-8.136 0.012-0.494 0.248-1.094 0.048-1.342-0.446s-0.046-1.096 0.448-1.342c2.65-1.326 5.76-0.802 9.364-0.198 3.874 0.652 8.26 1.39 13.342 0.122 0.532-0.136 1.078 0.192 1.21 0.728s-0.192 1.080-0.728 1.214c-2.196 0.546-4.282 0.746-6.242 0.746z" fill="#000000"></path>
	<path d="M28.75 52.624c-0.088 0-0.178-0.012-0.27-0.038-0.532-0.148-0.842-0.702-0.696-1.234l12.5-45c0.096-0.346 0.372-0.614 0.722-0.702l10-2.5c0.534-0.138 1.078 0.192 1.21 0.728s-0.192 1.080-0.726 1.214l-9.436 2.358-12.344 44.44c-0.12 0.442-0.522 0.734-0.96 0.734z" fill="#000000"></path>
	<path d="M15 23.904c-0.15 0-0.302-0.034-0.446-0.104-4.196-2.098-6.802-6.286-6.802-10.924 0-6.754 5.496-12.25 12.25-12.25 4.64 0 8.826 2.606 10.924 6.802 0.248 0.494 0.046 1.094-0.448 1.342-0.496 0.248-1.094 0.046-1.342-0.448-1.76-3.514-5.26-5.698-9.136-5.698-5.652 0-10.25 4.598-10.25 10.25 0 3.876 2.182 7.376 5.698 9.134 0.494 0.248 0.694 0.848 0.446 1.342-0.176 0.352-0.528 0.554-0.894 0.554z" fill="#000000"></path>
	<path d="M13.75 17.624c-0.256 0-0.512-0.098-0.708-0.292-0.39-0.392-0.39-1.024 0-1.414l2.5-2.5c0.39-0.39 1.024-0.39 1.414 0s0.39 1.022 0 1.414l-2.5 2.5c-0.194 0.194-0.45 0.292-0.706 0.292z" fill="#000000"></path>
	<path d="M21.25 10.124c-0.256 0-0.512-0.098-0.708-0.292-0.39-0.392-0.39-1.024 0-1.414l2.5-2.5c0.39-0.39 1.024-0.39 1.414 0s0.39 1.022 0 1.414l-2.5 2.5c-0.194 0.194-0.45 0.292-0.706 0.292z" fill="#000000"></path>
	<path d="M17.5 11.452c-0.26 0-0.522-0.102-0.718-0.302l-2.5-2.58c-0.382-0.398-0.374-1.030 0.022-1.414s1.030-0.376 1.414 0.022l2.5 2.578c0.384 0.396 0.376 1.030-0.022 1.414-0.194 0.188-0.446 0.282-0.696 0.282z" fill="#000000"></path>
</svg>
