<?xml version="1.0" encoding="utf-8"?>
<!-- Generated by IcoMoon.io -->
<!DOCTYPE svg PUBLIC "-//W3C//DTD SVG 1.1//EN" "http://www.w3.org/Graphics/SVG/1.1/DTD/svg11.dtd">
<svg version="1.1" xmlns="http://www.w3.org/2000/svg" xmlns:xlink="http://www.w3.org/1999/xlink" width="60" height="60" viewBox="0 0 60 60">
<g id="icomoon-ignore">
	<line stroke-width="1" x1="" y1="" x2="" y2="" stroke="#449FDB" opacity=""></line>
</g>
	<path d="M46.9 33.664c-1.18 0-2.468-0.488-3.858-1.874-2.076-2.076-3.352-1.384-5.614 0.124-2.032 1.352-4.806 3.206-8.136-0.124-2.076-2.076-3.352-1.384-5.614 0.124-2.032 1.352-4.806 3.206-8.136-0.124-2.076-2.076-3.352-1.384-5.614 0.124-2.032 1.352-4.806 3.206-8.136-0.124-0.39-0.388-0.39-1.024 0-1.416s1.024-0.39 1.414 0c2.072 2.072 3.348 1.382 5.614-0.126 2.030-1.352 4.804-3.206 8.136 0.126 2.074 2.074 3.35 1.382 5.614-0.126 2.030-1.352 4.806-3.206 8.136 0.126 2.074 2.074 3.35 1.382 5.614-0.126 2.030-1.352 4.804-3.206 8.136 0.126 2.074 2.074 3.35 1.382 5.614-0.126 2.030-1.352 4.804-3.206 8.136 0.126 0.39 0.39 0.39 1.024 0 1.414s-1.024 0.39-1.414 0c-2.076-2.076-3.352-1.384-5.614 0.126-1.184 0.792-2.622 1.75-4.278 1.75z" fill="#000000"></path>
	<path d="M46.9 44.164c-1.18 0-2.47-0.488-3.858-1.876-2.074-2.074-3.352-1.382-5.612 0.126-2.032 1.352-4.808 3.208-8.138-0.126-2.074-2.074-3.352-1.382-5.612 0.126-2.032 1.352-4.808 3.208-8.138-0.126-2.074-2.074-3.35-1.382-5.612 0.126-2.032 1.352-4.808 3.208-8.138-0.126-0.39-0.39-0.39-1.024 0-1.414s1.024-0.39 1.414 0c2.076 2.074 3.352 1.382 5.614-0.126 2.030-1.352 4.806-3.206 8.136 0.126 2.076 2.074 3.352 1.382 5.614-0.126 2.028-1.352 4.806-3.206 8.136 0.126 2.076 2.074 3.352 1.382 5.614-0.126 2.030-1.352 4.806-3.206 8.136 0.126 2.076 2.074 3.352 1.382 5.614-0.126 2.030-1.352 4.806-3.206 8.136 0.126 0.39 0.39 0.39 1.024 0 1.414s-1.024 0.39-1.414 0c-2.074-2.074-3.352-1.382-5.612 0.126-1.182 0.792-2.624 1.75-4.28 1.75z" fill="#000000"></path>
	<path d="M46.9 54.664c-1.18 0-2.47-0.488-3.858-1.874-2.074-2.074-3.348-1.38-5.614 0.126-2.030 1.352-4.808 3.206-8.136-0.126-2.074-2.074-3.348-1.38-5.614 0.126-2.030 1.352-4.81 3.206-8.136-0.126-2.074-2.074-3.348-1.38-5.614 0.126-2.030 1.352-4.808 3.206-8.136-0.126-0.39-0.388-0.39-1.026 0-1.414s1.024-0.388 1.414 0c2.076 2.074 3.352 1.38 5.614-0.126 2.032-1.352 4.808-3.208 8.136 0.126 2.076 2.074 3.352 1.38 5.614-0.126 2.030-1.352 4.808-3.208 8.136 0.126 2.076 2.074 3.352 1.38 5.614-0.126 2.032-1.352 4.806-3.208 8.136 0.126 2.076 2.074 3.352 1.38 5.614-0.126 2.032-1.352 4.808-3.208 8.136 0.126 0.39 0.388 0.39 1.026 0 1.414s-1.024 0.388-1.414 0c-2.074-2.074-3.348-1.38-5.614 0.126-1.18 0.79-2.622 1.748-4.278 1.748z" fill="#000000"></path>
	<path d="M36.524 26.584c-0.552 0-1-0.448-1-1v-11c0-5.1 4.15-9.25 9.25-9.25 0.55 0 1 0.448 1 1s-0.45 1-1 1c-3.998 0-7.25 3.252-7.25 7.25v11c0 0.55-0.45 1-1 1z" fill="#000000"></path>
	<path d="M48.524 26.584c-0.552 0-1-0.448-1-1v-11c0-5.1 4.15-9.25 9.25-9.25 0.55 0 1 0.448 1 1s-0.45 1-1 1c-3.998 0-7.25 3.252-7.25 7.25v11c0 0.55-0.45 1-1 1z" fill="#000000"></path>
	<path d="M47.524 15.584h-10c-0.552 0-1-0.448-1-1s0.448-1 1-1h10c0.55 0 1 0.448 1 1s-0.45 1-1 1z" fill="#000000"></path>
	<path d="M47.524 23.584h-10c-0.552 0-1-0.448-1-1s0.448-1 1-1h10c0.55 0 1 0.448 1 1s-0.45 1-1 1z" fill="#000000"></path>
</svg>
